<mxfile host="65bd71144e">
    <diagram id="d9uJFG7qVe6srTaCeVHA" name="Page-1">
        <mxGraphModel dx="-391" dy="1139" grid="0" gridSize="10" guides="1" tooltips="1" connect="1" arrows="1" fold="1" page="0" pageScale="1" pageWidth="800" pageHeight="320" math="0" shadow="0">
            <root>
                <mxCell id="0"/>
                <mxCell id="1" parent="0"/>
                <mxCell id="3" value="" style="rounded=0;whiteSpace=wrap;html=1;" parent="1" vertex="1">
                    <mxGeometry x="2398.5" y="430" width="433" height="230" as="geometry"/>
                </mxCell>
                <mxCell id="4" style="edgeStyle=none;html=1;entryX=0;entryY=0.348;entryDx=0;entryDy=0;entryPerimeter=0;fontSize=8;" parent="1" source="5" target="8" edge="1">
                    <mxGeometry relative="1" as="geometry"/>
                </mxCell>
                <mxCell id="168" value="AMQP" style="edgeLabel;html=1;align=center;verticalAlign=middle;resizable=0;points=[];" parent="4" vertex="1" connectable="0">
                    <mxGeometry x="-0.2673" y="1" relative="1" as="geometry">
                        <mxPoint as="offset"/>
                    </mxGeometry>
                </mxCell>
                <mxCell id="5" value="Source&lt;br&gt;System" style="rounded=1;whiteSpace=wrap;html=1;spacing=0;spacingLeft=-58;" parent="1" vertex="1">
                    <mxGeometry x="2220.5" y="491" width="120" height="60" as="geometry"/>
                </mxCell>
                <mxCell id="7" value="" style="shape=image;verticalLabelPosition=bottom;labelBackgroundColor=default;verticalAlign=top;aspect=fixed;imageAspect=0;image=https://upload.wikimedia.org/wikipedia/commons/thumb/f/fa/Microsoft_Azure.svg/2048px-Microsoft_Azure.svg.png;" parent="1" vertex="1">
                    <mxGeometry x="2402.5" y="418" width="18.2" height="18.2" as="geometry"/>
                </mxCell>
                <mxCell id="8" value="" style="rounded=0;whiteSpace=wrap;html=1;" parent="1" vertex="1">
                    <mxGeometry x="2431.5" y="456.5" width="206" height="186.5" as="geometry"/>
                </mxCell>
                <mxCell id="9" style="edgeStyle=none;html=1;fontSize=8;" parent="1" source="11" target="13" edge="1">
                    <mxGeometry relative="1" as="geometry"/>
                </mxCell>
                <mxCell id="10" style="edgeStyle=none;html=1;fontSize=8;exitX=0.104;exitY=0.287;exitDx=0;exitDy=0;exitPerimeter=0;entryX=0;entryY=0.5;entryDx=0;entryDy=0;" parent="1" source="60" target="159" edge="1">
                    <mxGeometry relative="1" as="geometry">
                        <mxPoint x="2773.447" y="556.153" as="sourcePoint"/>
                        <mxPoint x="2876.5" y="558.834882240611" as="targetPoint"/>
                    </mxGeometry>
                </mxCell>
                <mxCell id="165" value="HTTP" style="edgeLabel;html=1;align=center;verticalAlign=middle;resizable=0;points=[];" parent="10" vertex="1" connectable="0">
                    <mxGeometry x="0.2452" relative="1" as="geometry">
                        <mxPoint x="-24" y="-11" as="offset"/>
                    </mxGeometry>
                </mxCell>
                <mxCell id="11" value="Instance A" style="aspect=fixed;html=1;points=[];align=left;image;fontSize=12;image=img/lib/azure2/compute/Function_Apps.svg;labelPosition=right;verticalLabelPosition=middle;verticalAlign=middle;imageBackground=#CCE5FF;" parent="1" vertex="1">
                    <mxGeometry x="2711.5" y="487.5" width="27.2" height="24" as="geometry"/>
                </mxCell>
                <mxCell id="12" value="Azure Service Bus Queue with sessions enabled" style="aspect=fixed;html=1;points=[];align=left;image;fontSize=8;image=img/lib/azure2/integration/Service_Bus.svg;labelPosition=right;verticalLabelPosition=middle;verticalAlign=middle;" parent="1" vertex="1">
                    <mxGeometry x="2437.5" y="459" width="19.27" height="17" as="geometry"/>
                </mxCell>
                <mxCell id="13" value="Session For Order #1" style="rounded=1;whiteSpace=wrap;html=1;fontSize=8;arcSize=50;labelPosition=center;verticalLabelPosition=bottom;align=center;verticalAlign=top;spacing=-5;" parent="1" vertex="1">
                    <mxGeometry x="2465.5" y="491" width="120" height="17" as="geometry"/>
                </mxCell>
                <mxCell id="20" value="1" style="shape=ellipse;fillColor=#3333FF;strokeColor=none;html=1;rounded=1;shadow=0;glass=1;strokeWidth=4;fontColor=#ffffff;labelBorderColor=none;fontStyle=1;aspect=fixed;spacing=0;spacingRight=2;" parent="1" vertex="1">
                    <mxGeometry x="2328" y="469" width="22" height="22" as="geometry"/>
                </mxCell>
                <mxCell id="21" value="3a" style="shape=ellipse;fillColor=#3333FF;strokeColor=none;html=1;rounded=1;shadow=0;glass=1;strokeWidth=4;fontColor=#ffffff;labelBorderColor=none;fontStyle=1;aspect=fixed;spacing=0;spacingRight=2;" parent="1" vertex="1">
                    <mxGeometry x="2647.5" y="475" width="22" height="22" as="geometry"/>
                </mxCell>
                <mxCell id="22" value="2" style="shape=ellipse;fillColor=#3333FF;strokeColor=none;html=1;rounded=1;shadow=0;glass=1;strokeWidth=4;fontColor=#ffffff;labelBorderColor=none;fontStyle=1;aspect=fixed;spacing=0;spacingRight=2;" parent="1" vertex="1">
                    <mxGeometry x="2412.5" y="442" width="22" height="22" as="geometry"/>
                </mxCell>
                <mxCell id="25" value="33" style="shape=message;html=1;html=1;outlineConnect=0;labelPosition=center;verticalLabelPosition=bottom;align=center;verticalAlign=top;fontSize=6;spacing=-5;fillColor=#dae8fc;strokeColor=#6c8ebf;" parent="1" vertex="1">
                    <mxGeometry x="2560.5" y="494" width="11" height="7" as="geometry"/>
                </mxCell>
                <mxCell id="26" value="34" style="shape=message;html=1;html=1;outlineConnect=0;labelPosition=center;verticalLabelPosition=bottom;align=center;verticalAlign=top;fontSize=6;spacing=-5;fillColor=#dae8fc;strokeColor=#6c8ebf;" parent="1" vertex="1">
                    <mxGeometry x="2543.5" y="494" width="11" height="7" as="geometry"/>
                </mxCell>
                <mxCell id="27" value="51" style="shape=message;html=1;html=1;outlineConnect=0;labelPosition=center;verticalLabelPosition=bottom;align=center;verticalAlign=top;fontSize=6;spacing=-5;fillColor=#dae8fc;strokeColor=#6c8ebf;" parent="1" vertex="1">
                    <mxGeometry x="2527" y="494" width="11" height="7" as="geometry"/>
                </mxCell>
                <mxCell id="28" value="88" style="shape=message;html=1;html=1;outlineConnect=0;labelPosition=center;verticalLabelPosition=bottom;align=center;verticalAlign=top;fontSize=6;spacing=-5;fillColor=#dae8fc;strokeColor=#6c8ebf;" parent="1" vertex="1">
                    <mxGeometry x="2324.5" y="516" width="11" height="7" as="geometry"/>
                </mxCell>
                <mxCell id="29" value="Session For Order #2" style="rounded=1;whiteSpace=wrap;html=1;fontSize=8;arcSize=50;labelPosition=center;verticalLabelPosition=bottom;align=center;verticalAlign=top;spacing=-5;" parent="1" vertex="1">
                    <mxGeometry x="2465.5" y="520" width="120" height="17" as="geometry"/>
                </mxCell>
                <mxCell id="30" value="7" style="shape=message;html=1;html=1;outlineConnect=0;labelPosition=center;verticalLabelPosition=bottom;align=center;verticalAlign=top;fontSize=6;spacing=-5;fillColor=#d5e8d4;strokeColor=#82b366;" parent="1" vertex="1">
                    <mxGeometry x="2562.5" y="523" width="11" height="7" as="geometry"/>
                </mxCell>
                <mxCell id="31" value="10" style="shape=message;html=1;html=1;outlineConnect=0;labelPosition=center;verticalLabelPosition=bottom;align=center;verticalAlign=top;fontSize=6;spacing=-5;fillColor=#d5e8d4;strokeColor=#82b366;" parent="1" vertex="1">
                    <mxGeometry x="2545.5" y="523" width="11" height="7" as="geometry"/>
                </mxCell>
                <mxCell id="32" value="11" style="shape=message;html=1;html=1;outlineConnect=0;labelPosition=center;verticalLabelPosition=bottom;align=center;verticalAlign=top;fontSize=6;spacing=-5;fillColor=#d5e8d4;strokeColor=#82b366;" parent="1" vertex="1">
                    <mxGeometry x="2529" y="523" width="11" height="7" as="geometry"/>
                </mxCell>
                <mxCell id="33" value="12" style="shape=message;html=1;html=1;outlineConnect=0;labelPosition=center;verticalLabelPosition=bottom;align=center;verticalAlign=top;fontSize=6;spacing=-5;fillColor=#d5e8d4;strokeColor=#82b366;" parent="1" vertex="1">
                    <mxGeometry x="2512.5" y="523" width="11" height="7" as="geometry"/>
                </mxCell>
                <mxCell id="34" value="87" style="shape=message;html=1;html=1;outlineConnect=0;labelPosition=center;verticalLabelPosition=bottom;align=center;verticalAlign=top;fontSize=6;spacing=-5;fillColor=#d5e8d4;strokeColor=#82b366;" parent="1" vertex="1">
                    <mxGeometry x="2495.5" y="523" width="11" height="7" as="geometry"/>
                </mxCell>
                <mxCell id="35" value="Session For Order #3" style="rounded=1;whiteSpace=wrap;html=1;fontSize=8;arcSize=50;labelPosition=center;verticalLabelPosition=bottom;align=center;verticalAlign=top;spacing=-5;" parent="1" vertex="1">
                    <mxGeometry x="2465.5" y="549" width="120" height="17" as="geometry"/>
                </mxCell>
                <mxCell id="36" value="9" style="shape=message;html=1;html=1;outlineConnect=0;labelPosition=center;verticalLabelPosition=bottom;align=center;verticalAlign=top;fontSize=6;spacing=-5;fillColor=#ffe6cc;strokeColor=#d79b00;" parent="1" vertex="1">
                    <mxGeometry x="2562.5" y="552" width="11" height="7" as="geometry"/>
                </mxCell>
                <mxCell id="37" value="30" style="shape=message;html=1;html=1;outlineConnect=0;labelPosition=center;verticalLabelPosition=bottom;align=center;verticalAlign=top;fontSize=6;spacing=-5;fillColor=#ffe6cc;strokeColor=#d79b00;" parent="1" vertex="1">
                    <mxGeometry x="2545.5" y="552" width="11" height="7" as="geometry"/>
                </mxCell>
                <mxCell id="38" value="47" style="shape=message;html=1;html=1;outlineConnect=0;labelPosition=center;verticalLabelPosition=bottom;align=center;verticalAlign=top;fontSize=6;spacing=-5;fillColor=#ffe6cc;strokeColor=#d79b00;" parent="1" vertex="1">
                    <mxGeometry x="2529" y="552" width="11" height="7" as="geometry"/>
                </mxCell>
                <mxCell id="39" value="Session For Order #4" style="rounded=1;whiteSpace=wrap;html=1;fontSize=8;arcSize=50;labelPosition=center;verticalLabelPosition=bottom;align=center;verticalAlign=top;spacing=-5;" parent="1" vertex="1">
                    <mxGeometry x="2465.5" y="577" width="120" height="17" as="geometry"/>
                </mxCell>
                <mxCell id="40" value="17" style="shape=message;html=1;html=1;outlineConnect=0;labelPosition=center;verticalLabelPosition=bottom;align=center;verticalAlign=top;fontSize=6;spacing=-5;fillColor=#f8cecc;strokeColor=#b85450;" parent="1" vertex="1">
                    <mxGeometry x="2562.5" y="580" width="11" height="7" as="geometry"/>
                </mxCell>
                <mxCell id="41" value="18" style="shape=message;html=1;html=1;outlineConnect=0;labelPosition=center;verticalLabelPosition=bottom;align=center;verticalAlign=top;fontSize=6;spacing=-5;fillColor=#f8cecc;strokeColor=#b85450;" parent="1" vertex="1">
                    <mxGeometry x="2545.5" y="580" width="11" height="7" as="geometry"/>
                </mxCell>
                <mxCell id="42" value="19" style="shape=message;html=1;html=1;outlineConnect=0;labelPosition=center;verticalLabelPosition=bottom;align=center;verticalAlign=top;fontSize=6;spacing=-5;fillColor=#f8cecc;strokeColor=#b85450;" parent="1" vertex="1">
                    <mxGeometry x="2529" y="580" width="11" height="7" as="geometry"/>
                </mxCell>
                <mxCell id="43" value="20" style="shape=message;html=1;html=1;outlineConnect=0;labelPosition=center;verticalLabelPosition=bottom;align=center;verticalAlign=top;fontSize=6;spacing=-5;fillColor=#f8cecc;strokeColor=#b85450;" parent="1" vertex="1">
                    <mxGeometry x="2512.5" y="580" width="11" height="7" as="geometry"/>
                </mxCell>
                <mxCell id="44" value="21" style="shape=message;html=1;html=1;outlineConnect=0;labelPosition=center;verticalLabelPosition=bottom;align=center;verticalAlign=top;fontSize=6;spacing=-5;fillColor=#f8cecc;strokeColor=#b85450;" parent="1" vertex="1">
                    <mxGeometry x="2495.5" y="580" width="11" height="7" as="geometry"/>
                </mxCell>
                <mxCell id="45" value="22" style="shape=message;html=1;html=1;outlineConnect=0;labelPosition=center;verticalLabelPosition=bottom;align=center;verticalAlign=top;fontSize=6;spacing=-5;fillColor=#f8cecc;strokeColor=#b85450;" parent="1" vertex="1">
                    <mxGeometry x="2480.5" y="580" width="11" height="7" as="geometry"/>
                </mxCell>
                <mxCell id="46" value="Session For Order #N ..." style="rounded=1;whiteSpace=wrap;html=1;fontSize=8;arcSize=50;labelPosition=center;verticalLabelPosition=bottom;align=center;verticalAlign=top;spacing=-5;" parent="1" vertex="1">
                    <mxGeometry x="2465.5" y="606" width="120" height="17" as="geometry"/>
                </mxCell>
                <mxCell id="47" value="23" style="shape=message;html=1;html=1;outlineConnect=0;labelPosition=center;verticalLabelPosition=bottom;align=center;verticalAlign=top;fontSize=6;spacing=-5;fillColor=#e1d5e7;strokeColor=#9673a6;" parent="1" vertex="1">
                    <mxGeometry x="2562.5" y="609" width="11" height="7" as="geometry"/>
                </mxCell>
                <mxCell id="48" value="24" style="shape=message;html=1;html=1;outlineConnect=0;labelPosition=center;verticalLabelPosition=bottom;align=center;verticalAlign=top;fontSize=6;spacing=-5;fillColor=#e1d5e7;strokeColor=#9673a6;" parent="1" vertex="1">
                    <mxGeometry x="2545.5" y="609" width="11" height="7" as="geometry"/>
                </mxCell>
                <mxCell id="49" value="35" style="shape=message;html=1;html=1;outlineConnect=0;labelPosition=center;verticalLabelPosition=bottom;align=center;verticalAlign=top;fontSize=6;spacing=-5;fillColor=#e1d5e7;strokeColor=#9673a6;" parent="1" vertex="1">
                    <mxGeometry x="2529" y="609" width="11" height="7" as="geometry"/>
                </mxCell>
                <mxCell id="50" value="65" style="shape=message;html=1;html=1;outlineConnect=0;labelPosition=center;verticalLabelPosition=bottom;align=center;verticalAlign=top;fontSize=6;spacing=-5;fillColor=#e1d5e7;strokeColor=#9673a6;" parent="1" vertex="1">
                    <mxGeometry x="2512.5" y="609" width="11" height="7" as="geometry"/>
                </mxCell>
                <mxCell id="51" value="60" style="shape=message;html=1;html=1;outlineConnect=0;labelPosition=center;verticalLabelPosition=bottom;align=center;verticalAlign=top;fontSize=6;spacing=-5;fillColor=#dae8fc;strokeColor=#6c8ebf;" parent="1" vertex="1">
                    <mxGeometry x="2510.5" y="494" width="11" height="7" as="geometry"/>
                </mxCell>
                <mxCell id="52" value="91" style="shape=message;html=1;html=1;outlineConnect=0;labelPosition=center;verticalLabelPosition=bottom;align=center;verticalAlign=top;fontSize=6;spacing=-5;fillColor=#ffe6cc;fontColor=default;strokeColor=#d79b00;" parent="1" vertex="1">
                    <mxGeometry x="2275.5" y="516" width="11" height="7" as="geometry"/>
                </mxCell>
                <mxCell id="53" value="90" style="shape=message;html=1;html=1;outlineConnect=0;labelPosition=center;verticalLabelPosition=bottom;align=center;verticalAlign=top;fontSize=6;spacing=-5;fillColor=#ffff88;strokeColor=#36393d;" parent="1" vertex="1">
                    <mxGeometry x="2293.5" y="516" width="11" height="7" as="geometry"/>
                </mxCell>
                <mxCell id="54" value="89" style="shape=message;html=1;html=1;outlineConnect=0;labelPosition=center;verticalLabelPosition=bottom;align=center;verticalAlign=top;fontSize=6;spacing=-5;fillColor=#ffff88;strokeColor=#36393d;" parent="1" vertex="1">
                    <mxGeometry x="2309.5" y="516" width="11" height="7" as="geometry"/>
                </mxCell>
                <mxCell id="55" style="edgeStyle=none;html=1;fontSize=6;entryX=1;entryY=0.5;entryDx=0;entryDy=0;dashed=1;" parent="1" source="11" target="29" edge="1">
                    <mxGeometry relative="1" as="geometry">
                        <mxPoint x="2711.5" y="528.5" as="sourcePoint"/>
                    </mxGeometry>
                </mxCell>
                <mxCell id="56" style="edgeStyle=none;html=1;fontSize=6;entryX=1;entryY=0.5;entryDx=0;entryDy=0;dashed=1;" parent="1" source="11" target="35" edge="1">
                    <mxGeometry relative="1" as="geometry">
                        <mxPoint x="2711.5" y="556.568136272545" as="sourcePoint"/>
                    </mxGeometry>
                </mxCell>
                <mxCell id="57" style="edgeStyle=none;html=1;fontSize=6;entryX=1;entryY=0.5;entryDx=0;entryDy=0;dashed=1;exitX=-0.017;exitY=0.669;exitDx=0;exitDy=0;exitPerimeter=0;" parent="1" source="59" target="46" edge="1">
                    <mxGeometry relative="1" as="geometry">
                        <mxPoint x="2711.5" y="583.6362725450902" as="sourcePoint"/>
                    </mxGeometry>
                </mxCell>
                <mxCell id="58" style="edgeStyle=none;html=1;fontSize=6;entryX=1;entryY=0.5;entryDx=0;entryDy=0;" parent="1" source="59" target="39" edge="1">
                    <mxGeometry relative="1" as="geometry"/>
                </mxCell>
                <mxCell id="59" value="Instance N" style="aspect=fixed;html=1;points=[];align=left;image;fontSize=12;image=img/lib/azure2/compute/Function_Apps.svg;labelPosition=right;verticalLabelPosition=middle;verticalAlign=middle;imageBackground=#E8E8FF;" parent="1" vertex="1">
                    <mxGeometry x="2711.5" y="572.5" width="27.2" height="24" as="geometry"/>
                </mxCell>
                <mxCell id="60" value="" style="line;strokeWidth=2;direction=south;html=1;fontSize=6;" parent="1" vertex="1">
                    <mxGeometry x="2802" y="485.5" width="10" height="140" as="geometry"/>
                </mxCell>
                <mxCell id="61" value="" style="line;strokeWidth=2;direction=south;html=1;fontSize=6;rotation=90;" parent="1" vertex="1">
                    <mxGeometry x="2790" y="473" width="10" height="24" as="geometry"/>
                </mxCell>
                <mxCell id="62" value="" style="line;strokeWidth=2;direction=south;html=1;fontSize=6;rotation=90;" parent="1" vertex="1">
                    <mxGeometry x="2789.5" y="613" width="10" height="24" as="geometry"/>
                </mxCell>
                <mxCell id="65" value="" style="rounded=0;whiteSpace=wrap;html=1;" parent="1" vertex="1">
                    <mxGeometry x="2412" y="49.5" width="397" height="238.5" as="geometry"/>
                </mxCell>
                <mxCell id="66" style="edgeStyle=none;html=1;entryX=0;entryY=0.348;entryDx=0;entryDy=0;entryPerimeter=0;fontSize=8;" parent="1" source="67" target="70" edge="1">
                    <mxGeometry relative="1" as="geometry"/>
                </mxCell>
                <mxCell id="130" value="AMQP" style="edgeLabel;html=1;align=center;verticalAlign=middle;resizable=0;points=[];" parent="66" vertex="1" connectable="0">
                    <mxGeometry x="-0.4148" y="1" relative="1" as="geometry">
                        <mxPoint as="offset"/>
                    </mxGeometry>
                </mxCell>
                <mxCell id="67" value="" style="rounded=1;whiteSpace=wrap;html=1;spacing=0;spacingLeft=-58;" parent="1" vertex="1">
                    <mxGeometry x="2223" y="114" width="120" height="60" as="geometry"/>
                </mxCell>
                <mxCell id="69" value="" style="shape=image;verticalLabelPosition=bottom;labelBackgroundColor=default;verticalAlign=top;aspect=fixed;imageAspect=0;image=https://upload.wikimedia.org/wikipedia/commons/thumb/f/fa/Microsoft_Azure.svg/2048px-Microsoft_Azure.svg.png;" parent="1" vertex="1">
                    <mxGeometry x="2416" y="37.5" width="18.2" height="18.2" as="geometry"/>
                </mxCell>
                <mxCell id="70" value="" style="rounded=0;whiteSpace=wrap;html=1;" parent="1" vertex="1">
                    <mxGeometry x="2445" y="76" width="206" height="192" as="geometry"/>
                </mxCell>
                <mxCell id="71" style="edgeStyle=none;html=1;fontSize=8;" parent="1" source="73" target="75" edge="1">
                    <mxGeometry relative="1" as="geometry"/>
                </mxCell>
                <mxCell id="72" style="edgeStyle=none;html=1;fontSize=8;exitX=0.088;exitY=0.252;exitDx=0;exitDy=0;exitPerimeter=0;entryX=0;entryY=0.5;entryDx=0;entryDy=0;endArrow=none;endFill=0;" parent="1" source="125" target="135" edge="1">
                    <mxGeometry relative="1" as="geometry">
                        <mxPoint x="2786.947" y="175.65300000000002" as="sourcePoint"/>
                        <mxPoint x="2890" y="175.65787476280832" as="targetPoint"/>
                    </mxGeometry>
                </mxCell>
                <mxCell id="73" value="Instance A" style="aspect=fixed;html=1;points=[];align=left;image;fontSize=12;image=img/lib/azure2/compute/Function_Apps.svg;labelPosition=right;verticalLabelPosition=middle;verticalAlign=middle;imageBackground=#CCE5FF;imageBorder=none;" parent="1" vertex="1">
                    <mxGeometry x="2683" y="107" width="27.2" height="24" as="geometry"/>
                </mxCell>
                <mxCell id="74" value="Azure Service Bus Queue with sessions enabled" style="aspect=fixed;html=1;points=[];align=left;image;fontSize=8;image=img/lib/azure2/integration/Service_Bus.svg;labelPosition=right;verticalLabelPosition=middle;verticalAlign=middle;" parent="1" vertex="1">
                    <mxGeometry x="2451" y="78.5" width="19.27" height="17" as="geometry"/>
                </mxCell>
                <mxCell id="75" value="Session For Order #1" style="rounded=1;whiteSpace=wrap;html=1;fontSize=8;arcSize=50;labelPosition=center;verticalLabelPosition=bottom;align=center;verticalAlign=top;spacing=-5;" parent="1" vertex="1">
                    <mxGeometry x="2479" y="110.5" width="120" height="17" as="geometry"/>
                </mxCell>
                <mxCell id="77" style="edgeStyle=orthogonalEdgeStyle;html=1;fontSize=8;" parent="1" edge="1">
                    <mxGeometry relative="1" as="geometry">
                        <mxPoint x="2599" y="297.4999999999998" as="targetPoint"/>
                    </mxGeometry>
                </mxCell>
                <mxCell id="82" value="1" style="shape=ellipse;fillColor=#3333FF;strokeColor=none;html=1;rounded=1;shadow=0;glass=1;strokeWidth=4;fontColor=#ffffff;labelBorderColor=none;fontStyle=1;aspect=fixed;spacing=0;spacingRight=2;" parent="1" vertex="1">
                    <mxGeometry x="2330.5" y="92" width="22" height="22" as="geometry"/>
                </mxCell>
                <mxCell id="83" value="3" style="shape=ellipse;fillColor=#3333FF;strokeColor=none;html=1;rounded=1;shadow=0;glass=1;strokeWidth=4;fontColor=#ffffff;labelBorderColor=none;fontStyle=1;aspect=fixed;spacing=0;spacingRight=2;" parent="1" vertex="1">
                    <mxGeometry x="2683" y="86" width="22" height="22" as="geometry"/>
                </mxCell>
                <mxCell id="84" value="2" style="shape=ellipse;fillColor=#3333FF;strokeColor=none;html=1;rounded=1;shadow=0;glass=1;strokeWidth=4;fontColor=#ffffff;labelBorderColor=none;fontStyle=1;aspect=fixed;spacing=0;spacingRight=2;" parent="1" vertex="1">
                    <mxGeometry x="2426" y="62" width="22" height="22" as="geometry"/>
                </mxCell>
                <mxCell id="87" value="33" style="shape=message;html=1;html=1;outlineConnect=0;labelPosition=center;verticalLabelPosition=bottom;align=center;verticalAlign=top;fontSize=6;spacing=-5;fillColor=#dae8fc;strokeColor=#6c8ebf;" parent="1" vertex="1">
                    <mxGeometry x="2574" y="113.5" width="11" height="7" as="geometry"/>
                </mxCell>
                <mxCell id="88" value="34" style="shape=message;html=1;html=1;outlineConnect=0;labelPosition=center;verticalLabelPosition=bottom;align=center;verticalAlign=top;fontSize=6;spacing=-5;fillColor=#dae8fc;strokeColor=#6c8ebf;" parent="1" vertex="1">
                    <mxGeometry x="2557" y="113.5" width="11" height="7" as="geometry"/>
                </mxCell>
                <mxCell id="89" value="51" style="shape=message;html=1;html=1;outlineConnect=0;labelPosition=center;verticalLabelPosition=bottom;align=center;verticalAlign=top;fontSize=6;spacing=-5;fillColor=#dae8fc;strokeColor=#6c8ebf;" parent="1" vertex="1">
                    <mxGeometry x="2540.5" y="113.5" width="11" height="7" as="geometry"/>
                </mxCell>
                <mxCell id="90" value="88" style="shape=message;html=1;html=1;outlineConnect=0;labelPosition=center;verticalLabelPosition=bottom;align=center;verticalAlign=top;fontSize=6;spacing=-5;fillColor=#dae8fc;strokeColor=#6c8ebf;" parent="1" vertex="1">
                    <mxGeometry x="2327" y="139" width="11" height="7" as="geometry"/>
                </mxCell>
                <mxCell id="91" value="Session For Order #2" style="rounded=1;whiteSpace=wrap;html=1;fontSize=8;arcSize=50;labelPosition=center;verticalLabelPosition=bottom;align=center;verticalAlign=top;spacing=-5;" parent="1" vertex="1">
                    <mxGeometry x="2479" y="139.5" width="120" height="17" as="geometry"/>
                </mxCell>
                <mxCell id="92" value="7" style="shape=message;html=1;html=1;outlineConnect=0;labelPosition=center;verticalLabelPosition=bottom;align=center;verticalAlign=top;fontSize=6;spacing=-5;fillColor=#d5e8d4;strokeColor=#82b366;" parent="1" vertex="1">
                    <mxGeometry x="2576" y="142.5" width="11" height="7" as="geometry"/>
                </mxCell>
                <mxCell id="93" value="10" style="shape=message;html=1;html=1;outlineConnect=0;labelPosition=center;verticalLabelPosition=bottom;align=center;verticalAlign=top;fontSize=6;spacing=-5;fillColor=#d5e8d4;strokeColor=#82b366;" parent="1" vertex="1">
                    <mxGeometry x="2559" y="142.5" width="11" height="7" as="geometry"/>
                </mxCell>
                <mxCell id="94" value="11" style="shape=message;html=1;html=1;outlineConnect=0;labelPosition=center;verticalLabelPosition=bottom;align=center;verticalAlign=top;fontSize=6;spacing=-5;fillColor=#d5e8d4;strokeColor=#82b366;" parent="1" vertex="1">
                    <mxGeometry x="2542.5" y="142.5" width="11" height="7" as="geometry"/>
                </mxCell>
                <mxCell id="95" value="12" style="shape=message;html=1;html=1;outlineConnect=0;labelPosition=center;verticalLabelPosition=bottom;align=center;verticalAlign=top;fontSize=6;spacing=-5;fillColor=#d5e8d4;strokeColor=#82b366;" parent="1" vertex="1">
                    <mxGeometry x="2526" y="142.5" width="11" height="7" as="geometry"/>
                </mxCell>
                <mxCell id="96" value="87" style="shape=message;html=1;html=1;outlineConnect=0;labelPosition=center;verticalLabelPosition=bottom;align=center;verticalAlign=top;fontSize=6;spacing=-5;fillColor=#d5e8d4;strokeColor=#82b366;" parent="1" vertex="1">
                    <mxGeometry x="2509" y="142.5" width="11" height="7" as="geometry"/>
                </mxCell>
                <mxCell id="97" value="Session For Order #3" style="rounded=1;whiteSpace=wrap;html=1;fontSize=8;arcSize=50;labelPosition=center;verticalLabelPosition=bottom;align=center;verticalAlign=top;spacing=-5;" parent="1" vertex="1">
                    <mxGeometry x="2479" y="168.5" width="120" height="17" as="geometry"/>
                </mxCell>
                <mxCell id="98" value="9" style="shape=message;html=1;html=1;outlineConnect=0;labelPosition=center;verticalLabelPosition=bottom;align=center;verticalAlign=top;fontSize=6;spacing=-5;fillColor=#ffe6cc;strokeColor=#d79b00;" parent="1" vertex="1">
                    <mxGeometry x="2576" y="171.5" width="11" height="7" as="geometry"/>
                </mxCell>
                <mxCell id="99" value="30" style="shape=message;html=1;html=1;outlineConnect=0;labelPosition=center;verticalLabelPosition=bottom;align=center;verticalAlign=top;fontSize=6;spacing=-5;fillColor=#ffe6cc;strokeColor=#d79b00;" parent="1" vertex="1">
                    <mxGeometry x="2559" y="171.5" width="11" height="7" as="geometry"/>
                </mxCell>
                <mxCell id="100" value="47" style="shape=message;html=1;html=1;outlineConnect=0;labelPosition=center;verticalLabelPosition=bottom;align=center;verticalAlign=top;fontSize=6;spacing=-5;fillColor=#ffe6cc;strokeColor=#d79b00;" parent="1" vertex="1">
                    <mxGeometry x="2542.5" y="171.5" width="11" height="7" as="geometry"/>
                </mxCell>
                <mxCell id="101" value="Session For Order #4" style="rounded=1;whiteSpace=wrap;html=1;fontSize=8;arcSize=50;labelPosition=center;verticalLabelPosition=bottom;align=center;verticalAlign=top;spacing=-5;" parent="1" vertex="1">
                    <mxGeometry x="2479" y="196.5" width="120" height="17" as="geometry"/>
                </mxCell>
                <mxCell id="102" value="17" style="shape=message;html=1;html=1;outlineConnect=0;labelPosition=center;verticalLabelPosition=bottom;align=center;verticalAlign=top;fontSize=6;spacing=-5;fillColor=#f8cecc;strokeColor=#b85450;" parent="1" vertex="1">
                    <mxGeometry x="2576" y="199.5" width="11" height="7" as="geometry"/>
                </mxCell>
                <mxCell id="103" value="18" style="shape=message;html=1;html=1;outlineConnect=0;labelPosition=center;verticalLabelPosition=bottom;align=center;verticalAlign=top;fontSize=6;spacing=-5;fillColor=#f8cecc;strokeColor=#b85450;" parent="1" vertex="1">
                    <mxGeometry x="2559" y="199.5" width="11" height="7" as="geometry"/>
                </mxCell>
                <mxCell id="104" value="19" style="shape=message;html=1;html=1;outlineConnect=0;labelPosition=center;verticalLabelPosition=bottom;align=center;verticalAlign=top;fontSize=6;spacing=-5;fillColor=#f8cecc;strokeColor=#b85450;" parent="1" vertex="1">
                    <mxGeometry x="2542.5" y="199.5" width="11" height="7" as="geometry"/>
                </mxCell>
                <mxCell id="105" value="20" style="shape=message;html=1;html=1;outlineConnect=0;labelPosition=center;verticalLabelPosition=bottom;align=center;verticalAlign=top;fontSize=6;spacing=-5;fillColor=#f8cecc;strokeColor=#b85450;" parent="1" vertex="1">
                    <mxGeometry x="2526" y="199.5" width="11" height="7" as="geometry"/>
                </mxCell>
                <mxCell id="106" value="21" style="shape=message;html=1;html=1;outlineConnect=0;labelPosition=center;verticalLabelPosition=bottom;align=center;verticalAlign=top;fontSize=6;spacing=-5;fillColor=#f8cecc;strokeColor=#b85450;" parent="1" vertex="1">
                    <mxGeometry x="2509" y="199.5" width="11" height="7" as="geometry"/>
                </mxCell>
                <mxCell id="107" value="22" style="shape=message;html=1;html=1;outlineConnect=0;labelPosition=center;verticalLabelPosition=bottom;align=center;verticalAlign=top;fontSize=6;spacing=-5;fillColor=#f8cecc;strokeColor=#b85450;" parent="1" vertex="1">
                    <mxGeometry x="2494" y="199.5" width="11" height="7" as="geometry"/>
                </mxCell>
                <mxCell id="108" value="Session For Order #N ..." style="rounded=1;whiteSpace=wrap;html=1;fontSize=8;arcSize=50;labelPosition=center;verticalLabelPosition=bottom;align=center;verticalAlign=top;spacing=-5;" parent="1" vertex="1">
                    <mxGeometry x="2479" y="225.5" width="120" height="17" as="geometry"/>
                </mxCell>
                <mxCell id="109" value="23" style="shape=message;html=1;html=1;outlineConnect=0;labelPosition=center;verticalLabelPosition=bottom;align=center;verticalAlign=top;fontSize=6;spacing=-5;fillColor=#e1d5e7;strokeColor=#9673a6;" parent="1" vertex="1">
                    <mxGeometry x="2576" y="228.5" width="11" height="7" as="geometry"/>
                </mxCell>
                <mxCell id="110" value="24" style="shape=message;html=1;html=1;outlineConnect=0;labelPosition=center;verticalLabelPosition=bottom;align=center;verticalAlign=top;fontSize=6;spacing=-5;fillColor=#e1d5e7;strokeColor=#9673a6;" parent="1" vertex="1">
                    <mxGeometry x="2559" y="228.5" width="11" height="7" as="geometry"/>
                </mxCell>
                <mxCell id="111" value="35" style="shape=message;html=1;html=1;outlineConnect=0;labelPosition=center;verticalLabelPosition=bottom;align=center;verticalAlign=top;fontSize=6;spacing=-5;fillColor=#e1d5e7;strokeColor=#9673a6;" parent="1" vertex="1">
                    <mxGeometry x="2542.5" y="228.5" width="11" height="7" as="geometry"/>
                </mxCell>
                <mxCell id="112" value="65" style="shape=message;html=1;html=1;outlineConnect=0;labelPosition=center;verticalLabelPosition=bottom;align=center;verticalAlign=top;fontSize=6;spacing=-5;fillColor=#e1d5e7;strokeColor=#9673a6;" parent="1" vertex="1">
                    <mxGeometry x="2526" y="228.5" width="11" height="7" as="geometry"/>
                </mxCell>
                <mxCell id="113" value="60" style="shape=message;html=1;html=1;outlineConnect=0;labelPosition=center;verticalLabelPosition=bottom;align=center;verticalAlign=top;fontSize=6;spacing=-5;fillColor=#dae8fc;strokeColor=#6c8ebf;" parent="1" vertex="1">
                    <mxGeometry x="2524" y="113.5" width="11" height="7" as="geometry"/>
                </mxCell>
                <mxCell id="114" value="91" style="shape=message;html=1;html=1;outlineConnect=0;labelPosition=center;verticalLabelPosition=bottom;align=center;verticalAlign=top;fontSize=6;spacing=-5;fillColor=#ffe6cc;fontColor=default;strokeColor=#d79b00;" parent="1" vertex="1">
                    <mxGeometry x="2278" y="139" width="11" height="7" as="geometry"/>
                </mxCell>
                <mxCell id="115" value="90" style="shape=message;html=1;html=1;outlineConnect=0;labelPosition=center;verticalLabelPosition=bottom;align=center;verticalAlign=top;fontSize=6;spacing=-5;fillColor=#ffff88;strokeColor=#36393d;" parent="1" vertex="1">
                    <mxGeometry x="2296" y="139" width="11" height="7" as="geometry"/>
                </mxCell>
                <mxCell id="116" value="89" style="shape=message;html=1;html=1;outlineConnect=0;labelPosition=center;verticalLabelPosition=bottom;align=center;verticalAlign=top;fontSize=6;spacing=-5;fillColor=#ffff88;strokeColor=#36393d;" parent="1" vertex="1">
                    <mxGeometry x="2312" y="139" width="11" height="7" as="geometry"/>
                </mxCell>
                <mxCell id="117" style="edgeStyle=none;html=1;fontSize=6;" parent="1" source="118" target="91" edge="1">
                    <mxGeometry relative="1" as="geometry"/>
                </mxCell>
                <mxCell id="118" value="Instance B" style="aspect=fixed;html=1;points=[];align=left;image;fontSize=12;image=img/lib/azure2/compute/Function_Apps.svg;labelPosition=right;verticalLabelPosition=middle;verticalAlign=middle;imageBackground=#E8FFE9;imageBorder=none;" parent="1" vertex="1">
                    <mxGeometry x="2683" y="136" width="27.2" height="24" as="geometry"/>
                </mxCell>
                <mxCell id="119" style="edgeStyle=none;html=1;fontSize=6;" parent="1" source="120" target="97" edge="1">
                    <mxGeometry relative="1" as="geometry"/>
                </mxCell>
                <mxCell id="120" value="Instance C" style="aspect=fixed;html=1;points=[];align=left;image;fontSize=12;image=img/lib/azure2/compute/Function_Apps.svg;labelPosition=right;verticalLabelPosition=middle;verticalAlign=middle;imageBackground=#FFF7ED;imageBorder=none;" parent="1" vertex="1">
                    <mxGeometry x="2683" y="164" width="27.2" height="24" as="geometry"/>
                </mxCell>
                <mxCell id="121" style="edgeStyle=none;html=1;fontSize=6;" parent="1" source="122" target="101" edge="1">
                    <mxGeometry relative="1" as="geometry"/>
                </mxCell>
                <mxCell id="122" value="Instance D" style="aspect=fixed;html=1;points=[];align=left;image;fontSize=12;image=img/lib/azure2/compute/Function_Apps.svg;labelPosition=right;verticalLabelPosition=middle;verticalAlign=middle;imageBackground=#FFE9E8;imageBorder=none;" parent="1" vertex="1">
                    <mxGeometry x="2683" y="193" width="27.2" height="24" as="geometry"/>
                </mxCell>
                <mxCell id="123" style="edgeStyle=none;html=1;fontSize=6;" parent="1" source="124" target="108" edge="1">
                    <mxGeometry relative="1" as="geometry"/>
                </mxCell>
                <mxCell id="124" value="Instance N" style="aspect=fixed;html=1;points=[];align=left;image;fontSize=12;image=img/lib/azure2/compute/Function_Apps.svg;labelPosition=right;verticalLabelPosition=middle;verticalAlign=middle;imageBackground=#E8E8FF;imageBorder=none;" parent="1" vertex="1">
                    <mxGeometry x="2683" y="222" width="27.2" height="24" as="geometry"/>
                </mxCell>
                <mxCell id="125" value="" style="line;strokeWidth=2;direction=south;html=1;fontSize=6;" parent="1" vertex="1">
                    <mxGeometry x="2779.5" y="105" width="10" height="140" as="geometry"/>
                </mxCell>
                <mxCell id="126" value="" style="line;strokeWidth=2;direction=south;html=1;fontSize=6;rotation=90;" parent="1" vertex="1">
                    <mxGeometry x="2767.5" y="92.5" width="10" height="24" as="geometry"/>
                </mxCell>
                <mxCell id="127" value="" style="line;strokeWidth=2;direction=south;html=1;fontSize=6;rotation=90;" parent="1" vertex="1">
                    <mxGeometry x="2767" y="232.5" width="10" height="24" as="geometry"/>
                </mxCell>
                <mxCell id="129" value="Source System" style="text;html=1;strokeColor=none;fillColor=none;align=center;verticalAlign=middle;whiteSpace=wrap;rounded=0;" parent="1" vertex="1">
                    <mxGeometry x="2221" y="130.5" width="52" height="27" as="geometry"/>
                </mxCell>
                <mxCell id="135" value="" style="rounded=1;whiteSpace=wrap;html=1;spacing=0;spacingLeft=-58;" parent="1" vertex="1">
                    <mxGeometry x="2868" y="146.5" width="60" height="60" as="geometry"/>
                </mxCell>
                <mxCell id="141" value="Target System" style="text;html=1;strokeColor=none;fillColor=none;align=center;verticalAlign=middle;whiteSpace=wrap;rounded=0;" parent="1" vertex="1">
                    <mxGeometry x="2872" y="163" width="52" height="27" as="geometry"/>
                </mxCell>
                <mxCell id="143" style="edgeStyle=none;html=1;fontSize=8;exitX=0.293;exitY=0.497;exitDx=0;exitDy=0;exitPerimeter=0;entryX=0;entryY=0.5;entryDx=0;entryDy=0;endArrow=none;endFill=0;" parent="1" source="125" target="135" edge="1">
                    <mxGeometry relative="1" as="geometry">
                        <mxPoint x="2796.98" y="127.31999999999994" as="sourcePoint"/>
                        <mxPoint x="2878" y="186.5000000000001" as="targetPoint"/>
                    </mxGeometry>
                </mxCell>
                <mxCell id="146" style="edgeStyle=none;html=1;fontSize=8;exitX=0.514;exitY=0.287;exitDx=0;exitDy=0;exitPerimeter=0;entryX=0;entryY=0.5;entryDx=0;entryDy=0;" parent="1" source="125" target="135" edge="1">
                    <mxGeometry relative="1" as="geometry">
                        <mxPoint x="2796.98" y="127.31999999999994" as="sourcePoint"/>
                        <mxPoint x="2878" y="186.5000000000001" as="targetPoint"/>
                    </mxGeometry>
                </mxCell>
                <mxCell id="147" value="HTTP" style="edgeLabel;html=1;align=center;verticalAlign=middle;resizable=0;points=[];" parent="146" vertex="1" connectable="0">
                    <mxGeometry x="0.1164" relative="1" as="geometry">
                        <mxPoint as="offset"/>
                    </mxGeometry>
                </mxCell>
                <mxCell id="148" style="edgeStyle=none;html=1;fontSize=8;exitX=0.715;exitY=0.392;exitDx=0;exitDy=0;exitPerimeter=0;entryX=0;entryY=0.5;entryDx=0;entryDy=0;endArrow=none;endFill=0;" parent="1" source="125" target="135" edge="1">
                    <mxGeometry relative="1" as="geometry">
                        <mxPoint x="2796.63" y="186.96000000000004" as="sourcePoint"/>
                        <mxPoint x="2878" y="186.5000000000001" as="targetPoint"/>
                    </mxGeometry>
                </mxCell>
                <mxCell id="150" style="edgeStyle=none;html=1;fontSize=8;exitX=0.923;exitY=0.427;exitDx=0;exitDy=0;exitPerimeter=0;entryX=0;entryY=0.5;entryDx=0;entryDy=0;endArrow=none;endFill=0;" parent="1" source="125" target="135" edge="1">
                    <mxGeometry relative="1" as="geometry">
                        <mxPoint x="2795.58" y="215.10000000000002" as="sourcePoint"/>
                        <mxPoint x="2878" y="186.5000000000001" as="targetPoint"/>
                    </mxGeometry>
                </mxCell>
                <mxCell id="152" value="Fundamental Architecture" style="text;html=1;strokeColor=none;fillColor=none;align=center;verticalAlign=middle;whiteSpace=wrap;rounded=0;" parent="1" vertex="1">
                    <mxGeometry x="2494.5" y="4" width="232" height="30" as="geometry"/>
                </mxCell>
                <mxCell id="153" value="Concurrency Optimized Architecture" style="text;html=1;strokeColor=none;fillColor=none;align=center;verticalAlign=middle;whiteSpace=wrap;rounded=0;" parent="1" vertex="1">
                    <mxGeometry x="2515" y="381" width="232" height="30" as="geometry"/>
                </mxCell>
                <mxCell id="158" value="5" style="shape=ellipse;fillColor=#3333FF;strokeColor=none;html=1;rounded=1;shadow=0;glass=1;strokeWidth=4;fontColor=#ffffff;labelBorderColor=none;fontStyle=1;aspect=fixed;spacing=0;spacingRight=2;" parent="1" vertex="1">
                    <mxGeometry x="2806" y="469" width="22" height="22" as="geometry"/>
                </mxCell>
                <mxCell id="159" value="" style="rounded=1;whiteSpace=wrap;html=1;spacing=0;spacingLeft=-58;" parent="1" vertex="1">
                    <mxGeometry x="2940.5" y="512.5" width="60" height="60" as="geometry"/>
                </mxCell>
                <mxCell id="160" value="Target System" style="text;html=1;strokeColor=none;fillColor=none;align=center;verticalAlign=middle;whiteSpace=wrap;rounded=0;" parent="1" vertex="1">
                    <mxGeometry x="2944.5" y="529" width="52" height="27" as="geometry"/>
                </mxCell>
                <mxCell id="162" value="4a" style="shape=ellipse;fillColor=#3333FF;strokeColor=none;html=1;rounded=1;shadow=0;glass=1;strokeWidth=4;fontColor=#ffffff;labelBorderColor=none;fontStyle=1;aspect=fixed;spacing=0;spacingRight=2;" parent="1" vertex="1">
                    <mxGeometry x="2650.5" y="526" width="22" height="22" as="geometry"/>
                </mxCell>
                <mxCell id="163" value="4b" style="shape=ellipse;fillColor=#3333FF;strokeColor=none;html=1;rounded=1;shadow=0;glass=1;strokeWidth=4;fontColor=#ffffff;labelBorderColor=none;fontStyle=1;aspect=fixed;spacing=0;spacingRight=2;" parent="1" vertex="1">
                    <mxGeometry x="2650.5" y="598.5" width="22" height="22" as="geometry"/>
                </mxCell>
                <mxCell id="164" style="edgeStyle=none;html=1;fontSize=8;exitX=0.7;exitY=0.287;exitDx=0;exitDy=0;exitPerimeter=0;entryX=0;entryY=0.5;entryDx=0;entryDy=0;" parent="1" source="60" target="159" edge="1">
                    <mxGeometry relative="1" as="geometry">
                        <mxPoint x="2819.1299999999997" y="510.05999999999995" as="sourcePoint"/>
                        <mxPoint x="2893.4999999999995" y="567" as="targetPoint"/>
                    </mxGeometry>
                </mxCell>
                <mxCell id="166" value="HTTP" style="edgeLabel;html=1;align=center;verticalAlign=middle;resizable=0;points=[];" parent="164" vertex="1" connectable="0">
                    <mxGeometry x="0.1355" relative="1" as="geometry">
                        <mxPoint x="-15" y="11" as="offset"/>
                    </mxGeometry>
                </mxCell>
                <mxCell id="167" value="3b" style="shape=ellipse;fillColor=#3333FF;strokeColor=none;html=1;rounded=1;shadow=0;glass=1;strokeWidth=4;fontColor=#ffffff;labelBorderColor=none;fontStyle=1;aspect=fixed;spacing=0;spacingRight=2;" parent="1" vertex="1">
                    <mxGeometry x="2650.5" y="562.5" width="22" height="22" as="geometry"/>
                </mxCell>
            </root>
        </mxGraphModel>
    </diagram>
</mxfile>